<svg width="1081" height="44" viewBox="0 0 1081 44" fill="none" xmlns="http://www.w3.org/2000/svg">
<path d="M64.192 29.696L58.24 33.088V1.27999H74.24V42.24H58.24L10.048 14.336L16 10.88V42.24H4.29153e-06V1.27999H16L64.192 29.696ZM185.268 43.52C175.966 43.52 168.478 42.7093 162.804 41.088C157.129 39.424 152.99 36.992 150.388 33.792C147.828 30.5493 146.548 26.5387 146.548 21.76C146.548 16.9813 147.828 12.992 150.388 9.792C152.99 6.54933 157.129 4.11733 162.804 2.49599C168.478 0.831996 175.966 -3.8147e-06 185.268 -3.8147e-06C194.569 -3.8147e-06 202.057 0.831996 207.732 2.49599C213.406 4.11733 217.524 6.54933 220.084 9.792C222.686 12.992 223.988 16.9813 223.988 21.76C223.988 26.5387 222.686 30.5493 220.084 33.792C217.524 36.992 213.406 39.424 207.732 41.088C202.057 42.7093 194.569 43.52 185.268 43.52ZM185.268 31.36C189.662 31.36 193.46 31.104 196.66 30.592C199.86 30.0373 202.334 29.0773 204.084 27.712C205.833 26.304 206.708 24.32 206.708 21.76C206.708 19.2 205.833 17.2373 204.084 15.872C202.334 14.464 199.86 13.504 196.66 12.992C193.46 12.4373 189.662 12.16 185.268 12.16C180.873 12.16 177.012 12.4373 173.684 12.992C170.398 13.504 167.817 14.464 165.94 15.872C164.105 17.2373 163.188 19.2 163.188 21.76C163.188 24.32 164.105 26.304 165.94 27.712C167.817 29.0773 170.398 30.0373 173.684 30.592C177.012 31.104 180.873 31.36 185.268 31.36ZM296.313 42.24V1.27999H345.785C349.667 1.27999 353.145 1.728 356.217 2.624C359.331 3.47733 361.785 4.928 363.577 6.976C365.411 9.024 366.329 11.8187 366.329 15.36C366.329 17.7067 365.902 19.648 365.049 21.184C364.195 22.72 363.022 23.9147 361.529 24.768C360.035 25.6213 358.329 26.24 356.409 26.624C354.489 27.008 352.483 27.2427 350.393 27.328L345.721 26.432C350.798 26.4747 354.702 26.688 357.433 27.072C360.206 27.456 362.126 28.16 363.193 29.184C364.302 30.1653 364.857 31.5947 364.857 33.472V42.24H348.857V35.392C348.857 34.112 348.601 33.152 348.089 32.512C347.619 31.8293 346.553 31.36 344.889 31.104C343.267 30.848 340.75 30.72 337.337 30.72H312.313V42.24H296.313ZM312.313 20.032H345.785C347.065 20.032 348.131 19.8187 348.985 19.392C349.881 18.9653 350.329 18.1547 350.329 16.96C350.329 15.8507 349.881 15.104 348.985 14.72C348.131 14.2933 347.065 14.08 345.785 14.08H312.313V20.032ZM455.188 24.96V30.08H503.828V42.24H439.188V1.27999H503.7V13.44H455.188V18.56H494.868V24.96H455.188ZM576.125 1.27999H643.965V13.44L597.373 32.704L596.861 30.08H643.965V42.24H576.125V30.08L622.909 10.816L623.421 13.44H576.125V1.27999ZM811.246 36.032V26.432H855.022V36.032H811.246ZM796.91 42.24L824.366 1.27999H842.158L869.87 42.24H852.27L828.526 5.568H838.062L814.51 42.24H796.91ZM955 1.27999V30.08H992.312V42.24H939V1.27999H955ZM1064.34 1.27999H1080.34V42.24H1064.34V1.27999Z" fill="#FFE9D9"/>
</svg>
